<?xml version="1.0" standalone="no"?>
<!DOCTYPE svg PUBLIC "-//W3C//DTD SVG 20010904//EN"
 "http://www.w3.org/TR/2001/REC-SVG-20010904/DTD/svg10.dtd">
<svg version="1.0" xmlns="http://www.w3.org/2000/svg"
 width="4999.000000pt" height="5000.000000pt" viewBox="0 0 4999.000000 5000.000000"
 preserveAspectRatio="xMidYMid meet">

<g transform="translate(0.000000,5000.000000) scale(0.100000,-0.100000)"
fill="#000000" stroke="none">
<path d="M24550 49577 c-3 -4 -93 -7 -200 -8 -454 -5 -1143 -47 -1780 -110
-994 -97 -2049 -267 -3005 -483 -110 -25 -203 -46 -208 -46 -27 0 -562 -520
-766 -745 -557 -612 -912 -1190 -1042 -1694 -16 -63 -28 -116 -26 -117 2 -2
145 -15 318 -29 1589 -129 2912 -350 4065 -680 1244 -356 2280 -830 3402
-1557 106 -69 157 -97 165 -90 7 5 59 47 117 94 769 615 1726 1124 2830 1502
1239 426 2721 709 4504 861 159 13 291 26 293 29 3 3 -20 52 -50 109 -487 920
-1531 1712 -3180 2413 -186 79 -211 87 -380 120 -426 82 -1135 193 -1562 244
-93 11 -183 22 -200 25 -96 13 -519 55 -810 80 -239 20 -767 53 -975 60 -96 4
-193 8 -215 11 -66 7 -1290 17 -1295 11z m-4845 -2807 c1442 -70 2701 -360
3930 -905 459 -203 1244 -636 1274 -702 30 -66 -16 -142 -86 -143 -21 0 -174
71 -480 224 -948 473 -1477 703 -2048 889 -772 251 -1414 360 -2913 492 -283
25 -600 54 -705 65 -106 11 -202 20 -215 20 -25 0 -40 26 -25 41 24 24 889 37
1268 19z"/>
<path d="M33244 46543 c-3 -16 -12 -49 -19 -74 l-13 -45 147 -48 c1143 -376
2488 -1052 3681 -1851 1499 -1004 2799 -2197 3925 -3600 142 -177 475 -618
579 -768 37 -53 71 -99 75 -102 5 -2 21 5 35 16 15 12 29 19 31 17 11 -10 119
-301 168 -453 488 -1492 715 -3703 546 -5335 -79 -764 -226 -1360 -456 -1853
-26 -53 -44 -99 -42 -100 2 -2 49 -28 104 -57 657 -349 1365 -990 2046 -1850
968 -1221 1877 -2872 2439 -4425 144 -400 321 -989 304 -1016 -3 -6 -19 -9
-35 -7 -27 4 -29 2 -33 -36 -3 -23 -8 -106 -11 -186 -23 -588 -128 -1527 -256
-2295 -321 -1928 -849 -3636 -1575 -5095 -443 -889 -927 -1632 -1490 -2288
l-73 -84 30 -25 30 -26 -65 -43 c-170 -114 -601 -343 -918 -487 -726 -331
-1594 -657 -2543 -956 -223 -71 -337 -106 -610 -186 -336 -100 -1032 -278
-1403 -361 -822 -182 -1536 -286 -2057 -300 -191 -5 -199 -4 -170 12 17 9 32
18 33 20 8 6 -342 632 -608 1089 -923 1581 -2172 3503 -3618 5570 -224 320
-785 1110 -801 1127 -4 4 -19 -4 -34 -18 -40 -36 -33 -14 17 58 181 261 484
827 700 1306 470 1043 947 2389 1380 3897 524 1825 889 3569 908 4342 l2 82
36 9 c19 6 85 24 145 40 61 17 166 46 235 65 69 19 193 54 275 77 83 23 206
58 275 77 69 19 163 45 210 58 47 12 153 42 235 65 231 64 373 104 575 160
102 28 223 61 270 75 146 41 330 92 465 130 72 20 168 47 215 60 47 13 153 42
235 65 171 47 361 100 485 135 47 13 153 42 235 65 83 23 206 57 275 77 69 19
163 45 210 58 47 13 141 39 210 59 69 19 193 53 275 76 229 63 309 85 445 124
69 19 249 69 400 111 151 42 313 87 360 100 47 13 249 69 450 125 201 56 410
114 465 130 55 15 161 45 235 65 74 21 236 65 360 100 124 35 286 79 360 100
74 20 179 49 232 65 l97 28 10 -27 c8 -21 10 -22 10 -6 0 11 -3 25 -7 32 -8
12 -112 -17 -5962 -1644 -1119 -311 -2102 -584 -2183 -606 l-149 -41 5 -36 6
-35 -22 29 c-297 400 -1339 1312 -2592 2271 -1734 1327 -3629 2562 -5417 3533
l-147 80 -213 -110 c-2106 -1089 -4947 -3098 -7656 -5417 l-333 -285 6 -61
c15 -132 138 -840 200 -1151 374 -1867 1028 -4061 1760 -5899 414 -1040 810
-1854 1139 -2339 134 -197 125 -190 307 -236 616 -154 1777 -279 3254 -350
475 -23 716 -30 1382 -41 1125 -19 2247 7 3218 77 689 49 1396 133 1903 225
90 17 169 28 175 26 7 -2 23 4 36 15 14 10 28 15 32 11 28 -31 754 -1057 1055
-1493 283 -408 300 -433 547 -795 1314 -1925 2527 -3857 3267 -5205 62 -113
120 -219 130 -237 l18 -31 -58 -31 -58 -31 -48 87 c-713 1319 -1954 3306
-3289 5268 -220 324 -285 418 -525 765 -281 406 -571 817 -843 1199 l-310 434
24 18 c13 10 20 19 14 19 -5 0 -20 -8 -32 -18 l-22 -17 165 -230 c1926 -2680
3861 -5679 4829 -7482 30 -57 39 -61 73 -37 13 9 25 14 27 12 2 -2 -16 -71
-40 -153 -298 -1015 -1005 -2411 -1873 -3695 -922 -1365 -1950 -2500 -3027
-3345 -82 -64 -154 -121 -159 -125 -10 -10 15 -32 193 -178 1439 -1181 3273
-1849 5356 -1953 l231 -11 84 42 c424 213 1213 668 1790 1033 427 270 1093
728 1510 1039 1316 980 2540 2097 3646 3328 211 235 477 541 500 575 16 24 61
313 104 655 83 678 116 1271 107 1900 -14 887 -112 1644 -302 2330 -67 244
-196 604 -286 799 -22 46 -37 86 -35 88 2 3 14 -5 25 -16 12 -12 25 -21 29
-21 11 0 255 293 386 464 737 958 1332 2062 1829 3396 672 1801 1114 4002
1222 6093 l7 127 -38 -1 c-33 -2 -35 -3 -10 -6 l29 -5 -7 -191 c-10 -299 -26
-505 -86 -1087 -110 -1068 -350 -2349 -636 -3395 -254 -926 -599 -1888 -935
-2604 -27 -57 -49 -105 -49 -107 0 -6 -265 -537 -299 -598 -15 -28 -47 -87
-71 -131 -334 -619 -762 -1252 -1213 -1792 l-129 -154 -41 37 c-23 20 -46 40
-51 45 -5 4 39 63 96 131 1325 1563 2302 3763 2864 6453 99 475 221 1191 274
1615 77 605 117 1021 140 1440 5 102 13 220 16 263 6 76 6 77 34 77 16 0 30 4
32 9 2 6 57 36 123 69 792 391 1532 1098 2190 2092 78 118 181 281 229 361
l87 147 -15 123 c-9 68 -25 201 -36 294 -60 503 -172 1196 -280 1735 -638
3189 -1869 6157 -3675 8855 -300 449 -254 399 -446 482 -893 388 -1717 662
-2440 812 -211 44 -482 88 -654 106 -82 9 -161 19 -174 21 -23 5 -23 5 7 28
l31 22 -111 155 c-1068 1492 -2366 2807 -3853 3901 -1249 919 -2619 1674
-3960 2183 -136 52 -554 195 -569 195 -3 0 -8 -12 -12 -27z m178 -39 c620
-200 1451 -563 2190 -957 2267 -1211 4230 -2884 5756 -4909 169 -224 362 -491
362 -500 0 -3 -24 -21 -53 -40 l-53 -35 -74 105 c-386 546 -861 1132 -1352
1670 -225 246 -792 812 -1038 1037 -1182 1079 -2455 1965 -3870 2693 -646 332
-1489 689 -1965 832 -99 29 -99 29 -85 81 16 63 18 69 29 69 5 0 74 -21 153
-46z m-7897 -11384 c3 -11 4 -28 0 -39 -12 -40 -1107 -794 -2223 -1531 -1092
-721 -1731 -1148 -1967 -1315 -955 -672 -1873 -1380 -2915 -2249 -184 -153
-343 -285 -352 -293 -9 -8 -22 -12 -28 -8 -15 9 15 40 205 214 385 352 786
685 1620 1346 215 170 544 434 733 587 768 624 1019 818 1492 1148 168 118
535 381 815 585 936 681 1317 939 1794 1210 230 130 664 343 771 377 21 7 47
-8 55 -32z"/>
<path d="M17425 46428 c-22 -5 -146 -36 -275 -68 -1649 -410 -3251 -1166
-4723 -2229 -1064 -768 -2049 -1693 -2839 -2666 -264 -325 -578 -772 -732
-1039 -74 -129 -176 -332 -176 -350 0 -6 26 -21 58 -34 31 -13 62 -25 67 -27
6 -3 38 53 72 123 213 437 666 1060 1259 1727 200 226 809 839 1049 1056 1694
1531 3579 2606 5578 3178 195 56 464 126 643 166 l121 28 -15 73 c-16 81 -15
80 -87 62z m85 -119 c0 -3 -53 -18 -117 -34 -675 -161 -1172 -315 -1758 -543
-1497 -582 -2965 -1487 -4260 -2626 -509 -449 -1040 -985 -1466 -1481 -442
-516 -843 -1083 -1036 -1467 -35 -70 -66 -128 -68 -128 -6 0 -110 41 -114 45
-6 6 132 273 199 385 492 824 1365 1829 2340 2696 1178 1048 2536 1920 3910
2512 550 236 1143 445 1700 598 152 42 491 127 580 146 l65 13 12 -55 c7 -30
12 -58 13 -61z"/>
<path d="M25372 41948 c-7 -1129 -17 -2744 -22 -3588 -6 -844 -11 -1729 -13
-1965 l-2 -431 77 1 78 0 0 260 c0 143 4 919 10 1725 20 2903 40 5837 40 5943
l0 107 -35 0 c-19 0 -35 -5 -35 -11 0 -7 12 -10 28 -7 l27 4 -22 -3511 c-12
-1930 -22 -3732 -22 -4002 l-1 -493 -65 0 -65 0 0 363 c0 458 27 4629 40 6197
5 652 10 1242 10 1313 l0 127 25 0 c14 0 25 5 25 10 0 6 -15 10 -33 10 l-33 0
-12 -2052z"/>
<path d="M8575 39999 c-1666 -349 -3230 -1179 -4641 -2462 l-172 -156 -129
-228 c-1322 -2322 -2249 -4818 -2754 -7415 l-52 -268 48 -137 c451 -1304 965
-2233 1686 -3048 145 -165 504 -514 674 -655 297 -248 627 -481 957 -676 3 -2
33 78 66 179 274 836 750 1863 1328 2868 975 1696 2185 3210 3369 4219 61 51
118 101 128 110 17 16 15 22 -43 138 -121 242 -226 548 -320 937 -291 1197
-407 2865 -304 4390 52 788 176 1642 319 2208 9 33 17 33 -160 -4z m-805
-1118 c19 -15 44 -44 55 -64 19 -35 19 -38 2 -194 -67 -592 -80 -1067 -46
-1728 19 -384 39 -625 129 -1545 90 -918 117 -1254 140 -1752 10 -206 9 -231
-6 -263 -19 -41 -60 -73 -110 -86 -72 -20 -123 17 -228 165 -238 333 -384 775
-450 1356 -33 292 -40 478 -41 1060 0 708 12 885 110 1580 25 173 56 428 70
565 41 400 78 596 150 787 34 90 62 133 100 149 32 13 87 0 125 -30z"/>
<path d="M9122 32384 c1 -37 1 -38 5 -6 5 35 -3 34 98 12 28 -6 109 -21 180
-34 281 -52 905 -179 1285 -262 91 -19 206 -44 255 -55 50 -11 159 -35 243
-54 83 -19 223 -51 310 -71 86 -19 204 -47 262 -60 483 -115 865 -209 1215
-299 99 -26 212 -55 250 -65 39 -10 140 -37 225 -60 85 -23 202 -55 260 -70
58 -16 164 -45 235 -65 72 -20 175 -50 230 -65 55 -15 156 -45 225 -65 69 -20
161 -47 205 -60 70 -20 160 -47 495 -150 606 -187 1402 -464 1950 -680 80 -31
149 -60 153 -64 4 -4 3 -20 -2 -34 -6 -15 -8 -27 -6 -27 6 0 37 61 33 65 -6 6
-262 107 -483 190 -1716 648 -4026 1284 -6591 1815 -273 57 -848 169 -996 196
l-38 6 2 -38z"/>
<path d="M9106 32308 c-3 -17 -5 -33 -3 -34 2 -2 111 -24 242 -49 2921 -560
5856 -1361 7678 -2094 l148 -59 10 25 c5 14 7 28 4 31 -3 3 -5 1 -5 -4 -1 -37
-19 -34 -171 26 -736 291 -1630 594 -2569 869 -240 70 -608 174 -800 226 -74
20 -182 49 -240 65 -280 77 -1230 317 -1505 380 -49 11 -157 36 -240 56 -785
182 -1466 328 -2165 464 -251 49 -364 70 -370 70 -4 0 -5 14 -2 30 6 40 -4 39
-12 -2z"/>
<path d="M41883 32309 l2 -32 -135 -38 c-267 -73 -797 -221 -915 -254 -66 -19
-228 -64 -360 -100 -132 -36 -296 -82 -365 -101 -69 -20 -163 -46 -210 -59
-47 -13 -141 -39 -210 -59 -69 -19 -192 -53 -275 -76 -179 -49 -368 -102 -485
-135 -47 -13 -150 -42 -230 -64 -216 -59 -569 -158 -705 -196 -119 -34 -471
-131 -595 -165 -36 -10 -121 -34 -190 -53 -69 -19 -217 -61 -330 -92 -113 -31
-261 -72 -330 -91 -69 -20 -163 -46 -210 -59 -47 -13 -141 -39 -210 -59 -69
-19 -192 -53 -275 -76 -82 -23 -188 -52 -235 -65 -117 -33 -306 -86 -485 -135
-82 -23 -206 -57 -275 -76 -216 -61 -286 -81 -625 -175 -342 -94 -569 -158
-595 -166 -10 -3 -20 6 -27 24 l-12 28 6 -30 c3 -16 7 -32 9 -34 2 -2 126 31
276 72 261 73 2086 580 3693 1027 418 116 1262 351 1875 521 613 171 1413 393
1777 495 364 101 665 184 668 184 7 0 -5 53 -15 64 -5 4 -7 -7 -7 -25z"/>
<path d="M4115 24760 c-11 -253 1 -1037 20 -1360 26 -464 65 -898 116 -1305
355 -2860 1275 -5340 2697 -7268 l94 -127 26 21 c22 17 28 18 30 6 2 -8 -10
-88 -27 -178 -161 -876 -270 -1849 -312 -2769 -13 -291 -17 -1132 -6 -1385 32
-727 95 -1358 195 -1942 l27 -162 217 -228 c335 -353 755 -766 769 -757 7 4
10 3 6 -3 -6 -9 59 -81 69 -75 2 1 4 -1 4 -5 1 -16 95 -103 106 -99 6 2 36
-21 65 -52 l54 -57 -60 55 c-52 48 -50 45 15 -23 41 -42 79 -77 83 -77 5 0 3
8 -4 17 -14 18 266 -233 331 -297 88 -85 -44 30 -279 244 -25 23 -38 32 -31
22 24 -31 495 -453 705 -631 39 -33 58 -46 42 -29 -15 17 -25 33 -22 36 3 3
-2 11 -12 19 -11 9 -14 10 -9 2 4 -7 3 -13 -2 -13 -11 0 -51 42 -51 53 1 5 -3
12 -7 15 -4 4 -4 1 0 -5 4 -7 3 -13 -2 -13 -12 0 -63 55 -57 62 3 3 -2 11 -12
19 -11 9 -14 10 -9 2 13 -22 -10 -14 -34 12 -21 22 -35 55 -25 55 7 0 80 -44
85 -51 3 -3 19 -14 37 -23 18 -9 52 -29 76 -46 25 -16 48 -30 52 -30 4 0 21
-10 38 -22 18 -13 41 -28 52 -34 30 -16 68 -38 79 -47 13 -9 114 -70 166 -99
19 -11 42 -25 50 -32 8 -6 35 -22 60 -36 25 -13 47 -27 50 -30 3 -4 23 -17 45
-29 22 -12 70 -41 107 -64 37 -23 141 -86 230 -140 90 -55 240 -145 333 -202
94 -57 242 -147 330 -200 88 -53 210 -127 270 -164 61 -36 202 -122 315 -190
113 -68 223 -135 245 -149 64 -41 107 -67 159 -98 26 -16 56 -33 65 -39 9 -5
52 -32 96 -58 44 -27 112 -68 150 -93 39 -24 77 -47 85 -51 8 -3 38 -21 65
-38 28 -18 66 -41 85 -53 19 -12 62 -37 95 -57 33 -20 76 -46 96 -58 19 -12
57 -35 85 -51 27 -16 72 -44 101 -63 28 -18 55 -33 59 -33 4 0 15 -6 23 -14 9
-8 32 -23 51 -34 56 -31 154 -91 165 -99 6 -4 107 -66 225 -138 118 -71 265
-159 325 -196 106 -65 281 -171 385 -234 27 -16 102 -61 165 -100 63 -38 138
-83 165 -100 176 -105 266 -160 270 -164 3 -3 25 -17 50 -30 25 -13 52 -30 60
-37 8 -7 26 -19 40 -26 48 -26 175 -102 180 -109 3 -3 25 -17 50 -29 24 -12
57 -32 71 -43 l27 -19 122 37 c67 20 123 35 126 33 2 -2 -127 -44 -286 -93
-159 -49 -287 -92 -285 -95 4 -7 272 -131 491 -228 l111 -49 184 54 c1669 489
3097 1279 4677 2588 100 83 180 153 179 157 -1 5 -78 76 -172 159 -1292 1151
-2633 2739 -3532 4184 -600 964 -1011 1869 -1206 2650 -30 121 -57 231 -59
245 -4 30 -6 30 -138 4 -81 -16 -144 -19 -425 -19 -181 0 -395 6 -475 13
-1671 143 -3914 689 -5425 1320 -506 211 -945 435 -1275 649 -122 80 -343 241
-349 256 -2 5 -14 -2 -28 -15 l-25 -23 -24 30 c-115 143 -424 592 -591 860
-463 740 -887 1605 -1194 2435 -28 74 -61 162 -74 195 -31 81 -195 571 -241
720 -236 778 -403 1491 -539 2305 -190 1141 -288 2417 -260 3403 l7 267 63 0
62 0 -5 -429 c-6 -500 20 -1214 58 -1616 43 -460 62 -644 75 -730 8 -55 21
-161 30 -235 9 -74 25 -189 35 -255 11 -66 31 -192 45 -280 78 -492 182 -1000
305 -1495 34 -136 56 -220 125 -475 73 -272 238 -788 360 -1125 451 -1250
1074 -2433 1777 -3373 l89 -118 -23 -19 c-29 -24 -15 -26 16 -3 l23 18 -72 95
c-202 269 -461 657 -668 1000 -986 1643 -1660 3645 -1976 5865 -145 1017 -217
2223 -182 3030 4 83 6 151 6 151 0 1 -34 3 -77 6 l-76 3 -7 -185z m4595
-18135 c12 -13 40 -36 61 -50 39 -28 65 -65 31 -45 -30 17 -137 120 -126 120
6 0 21 -11 34 -25z"/>
<path d="M20283 20413 c-490 -675 -1505 -2196 -3571 -5353 -247 -378 -1471
-2261 -1555 -2392 l-37 -58 62 -40 c34 -22 64 -40 67 -40 4 0 49 67 101 148
323 502 1496 2305 2075 3187 1540 2349 2554 3864 2979 4449 56 76 101 141 101
143 0 3 -11 13 -25 21 -25 16 -25 16 -7 -5 18 -21 17 -23 -76 -149 -263 -361
-679 -973 -1471 -2164 -544 -818 -685 -1032 -996 -1505 -519 -791 -768 -1170
-1114 -1700 -222 -341 -447 -685 -499 -765 -109 -167 -267 -410 -636 -980
-145 -223 -301 -464 -348 -536 l-86 -131 -49 30 c-27 17 -51 34 -54 39 -4 6
195 318 644 1008 41 63 188 288 325 500 301 463 280 430 1070 1640 1099 1682
2250 3412 2780 4180 169 245 394 559 418 584 5 6 21 1 41 -14 l33 -23 -29 31
c-17 18 -33 32 -36 32 -4 0 -52 -62 -107 -137z"/>
<path d="M9097 6289 c7 -9 10 -18 7 -21 -3 -3 37 -41 88 -84 51 -43 83 -67 70
-53 -12 14 -20 28 -17 31 3 3 -2 11 -12 19 -11 9 -14 10 -9 2 4 -7 3 -13 -2
-13 -12 0 -53 45 -47 52 3 3 -3 11 -12 19 -16 13 -17 12 -4 -3 7 -10 9 -18 4
-18 -13 0 -55 45 -48 52 3 3 -3 11 -12 19 -16 12 -17 12 -6 -2z"/>
<path d="M9287 6129 c7 -9 11 -18 8 -21 -7 -6 29 -37 185 -163 74 -60 125 -97
112 -84 -12 14 -19 29 -15 34 5 4 2 5 -5 1 -15 -9 -55 22 -47 35 3 4 0 11 -6
15 -8 4 -9 3 -5 -4 4 -7 3 -12 -2 -12 -11 0 -58 50 -54 57 2 2 0 8 -4 11 -4 4
-4 1 0 -5 4 -7 3 -13 -2 -13 -15 0 -33 26 -24 35 4 5 2 5 -4 2 -14 -8 -64 30
-61 46 1 7 -4 11 -12 9 -16 -3 -53 27 -46 38 3 4 -3 14 -13 21 -15 12 -16 12
-5 -2z"/>
<path d="M9654 5807 c46 -42 154 -124 134 -101 -9 10 -17 24 -18 29 -1 6 -4
12 -7 15 -4 3 -3 -1 1 -7 4 -7 3 -13 -2 -13 -14 0 -33 26 -25 34 4 4 0 4 -8 1
-14 -5 -44 18 -51 40 -2 6 -7 9 -12 7 -5 -2 -16 3 -25 10 -10 7 -3 0 13 -15z"/>
<path d="M9813 5694 c0 -8 41 -47 91 -86 50 -40 100 -79 111 -87 16 -13 18
-13 8 -1 -6 8 -13 20 -15 25 -1 6 -7 9 -12 7 -12 -4 -37 19 -31 28 3 5 0 12
-6 16 -8 4 -9 3 -5 -4 11 -19 -9 -14 -27 6 -10 10 -14 22 -10 27 5 4 2 5 -5 1
-16 -10 -54 22 -45 37 3 6 1 7 -6 3 -14 -9 -43 12 -36 24 3 5 2 11 -3 14 -5 3
-9 -2 -9 -10z"/>
<path d="M10040 5506 c0 -2 8 -10 18 -17 15 -13 16 -12 3 4 -13 16 -21 21 -21
13z"/>
<path d="M10085 5481 c-3 -6 41 -45 97 -87 57 -43 96 -70 88 -59 -8 10 -15 21
-15 24 0 3 -4 5 -9 3 -13 -4 -36 19 -29 31 3 6 1 7 -6 3 -15 -10 -43 13 -34
27 3 6 1 7 -5 3 -14 -9 -84 42 -76 55 3 5 3 9 0 9 -3 0 -7 -4 -11 -9z"/>
<path d="M30310 5327 c-376 -107 -1053 -268 -1475 -351 -998 -197 -1994 -314
-3015 -355 -260 -10 -1083 -10 -1345 0 -1233 48 -2433 219 -3480 495 -236 63
-542 155 -690 209 -54 19 -100 33 -103 30 -5 -4 -51 -112 -55 -128 -7 -30 711
-244 1196 -356 931 -216 2026 -360 3024 -398 316 -13 1451 -9 1703 5 1456 82
2779 295 4180 674 124 33 228 63 231 67 3 3 -4 38 -15 76 l-21 70 -135 -38z
m139 -14 c26 -99 31 -88 -56 -110 -43 -12 -157 -42 -253 -68 -525 -140 -1176
-286 -1587 -355 -67 -11 -128 -22 -135 -25 -48 -17 -734 -116 -1078 -155 -146
-16 -303 -34 -350 -40 -199 -24 -809 -65 -1230 -81 -409 -17 -1277 -6 -1675
20 -482 32 -1208 101 -1325 126 -14 3 -115 19 -225 35 -774 112 -1532 286
-2189 500 -160 52 -187 64 -181 78 4 9 14 36 22 60 8 23 20 42 26 42 5 0 89
-27 186 -59 554 -187 1272 -356 1976 -466 88 -14 201 -32 250 -40 50 -8 182
-26 295 -40 113 -13 241 -29 285 -34 44 -6 186 -20 315 -31 129 -11 285 -24
345 -29 316 -28 616 -36 1280 -36 662 0 950 8 1285 36 63 5 198 16 300 24 171
14 427 39 510 50 19 3 143 18 275 35 218 27 603 82 665 95 14 3 81 14 150 25
541 87 1471 297 1995 450 55 16 103 29 107 29 4 1 12 -16 17 -36z"/>
<path d="M10290 5316 c0 -2 8 -10 18 -17 15 -13 16 -12 3 4 -13 16 -21 21 -21
13z"/>
<path d="M10336 5291 c-3 -5 9 -20 27 -33 91 -68 111 -82 100 -67 -7 9 -9 20
-5 24 4 5 1 5 -5 1 -14 -8 -86 42 -78 54 3 4 -3 7 -13 6 -9 0 -16 5 -14 12 2
14 -4 16 -12 3z"/>
<path d="M10480 5176 c0 -2 8 -10 18 -17 15 -13 16 -12 3 4 -13 16 -21 21 -21
13z"/>
<path d="M10520 5147 c0 -3 15 -16 33 -28 17 -13 26 -16 20 -8 -7 9 -9 20 -5
24 4 5 1 5 -6 1 -7 -4 -19 -2 -27 4 -8 7 -15 10 -15 7z"/>
<path d="M10596 5101 c-3 -5 2 -15 12 -22 15 -12 16 -12 5 2 -7 9 -10 19 -6
22 3 4 4 7 0 7 -3 0 -8 -4 -11 -9z"/>
<path d="M10633 5074 c0 -8 14 -24 31 -35 l31 -21 -25 22 c-14 12 -25 26 -25
30 0 5 -3 11 -6 14 -3 3 -6 -1 -6 -10z"/>
<path d="M10705 5021 c-3 -5 9 -20 27 -32 18 -13 27 -16 21 -8 -7 9 -10 18 -7
21 3 3 -3 5 -13 5 -10 -1 -17 4 -15 11 2 14 -4 16 -13 3z"/>
<path d="M10770 4967 c0 -3 15 -16 33 -28 17 -13 26 -16 20 -8 -7 9 -9 20 -5
24 4 5 1 5 -6 1 -7 -4 -19 -2 -27 4 -8 7 -15 10 -15 7z"/>
<path d="M10870 4896 c0 -2 8 -10 18 -17 15 -13 16 -12 3 4 -13 16 -21 21 -21
13z"/>
<path d="M10940 4846 c0 -3 28 -24 63 -47 34 -24 56 -36 50 -27 -7 8 -10 17
-7 20 3 3 -3 5 -13 5 -10 -1 -17 4 -15 11 1 8 -2 11 -8 7 -5 -3 -24 3 -40 15
-17 12 -30 19 -30 16z"/>
<path d="M11075 4761 c-3 -5 -2 -12 3 -15 5 -3 9 1 9 9 0 17 -3 19 -12 6z"/>
<path d="M11105 4741 c-3 -6 23 -29 57 -52 35 -24 57 -36 51 -27 -7 8 -9 19
-5 23 4 5 2 5 -5 1 -15 -8 -95 43 -87 55 3 5 3 9 0 9 -3 0 -7 -4 -11 -9z"/>
<path d="M11295 4611 c-3 -5 -2 -12 3 -15 5 -3 9 1 9 9 0 17 -3 19 -12 6z"/>
<path d="M11354 4563 c12 -22 43 -34 43 -18 0 8 -4 12 -9 9 -5 -3 -16 0 -25 8
-12 9 -15 9 -9 1z"/>
<path d="M11475 4491 c-3 -5 -2 -12 3 -15 5 -3 9 1 9 9 0 17 -3 19 -12 6z"/>
<path d="M11500 4464 c0 -1 12 -10 28 -20 19 -13 24 -13 15 -2 -7 8 -11 17 -8
19 2 3 -5 5 -15 5 -11 0 -20 -1 -20 -2z"/>
<path d="M11560 4427 c0 -3 12 -12 26 -22 15 -9 23 -12 20 -6 -7 11 -46 35
-46 28z"/>
<path d="M11675 4361 c-3 -5 -2 -12 3 -15 5 -3 9 1 9 9 0 17 -3 19 -12 6z"/>
<path d="M11730 4316 c0 -3 9 -10 20 -16 11 -6 20 -8 20 -6 0 3 -9 10 -20 16
-11 6 -20 8 -20 6z"/>
<path d="M11784 4283 c12 -22 43 -34 43 -18 0 8 -4 12 -9 9 -5 -3 -16 0 -25 8
-12 9 -15 9 -9 1z"/>
<path d="M11870 4223 c0 -1 8 -7 18 -12 13 -7 19 -6 19 2 0 7 -9 13 -19 13
-10 0 -18 -1 -18 -3z"/>
<path d="M11950 4176 c0 -3 9 -10 20 -16 11 -6 20 -8 20 -6 0 3 -9 10 -20 16
-11 6 -20 8 -20 6z"/>
<path d="M12005 4151 c-3 -5 -2 -12 3 -15 5 -3 9 1 9 9 0 17 -3 19 -12 6z"/>
<path d="M12110 4073 c0 -1 8 -7 18 -12 13 -7 19 -6 19 2 0 7 -9 13 -19 13
-10 0 -18 -1 -18 -3z"/>
<path d="M12160 4046 c0 -3 9 -10 20 -16 11 -6 20 -8 20 -6 0 3 -9 10 -20 16
-11 6 -20 8 -20 6z"/>
<path d="M12215 4021 c-3 -5 -2 -12 3 -15 5 -3 9 1 9 9 0 17 -3 19 -12 6z"/>
<path d="M12340 3936 c0 -3 9 -10 20 -16 11 -6 20 -8 20 -6 0 3 -9 10 -20 16
-11 6 -20 8 -20 6z"/>
<path d="M12390 3906 c0 -3 9 -10 20 -16 11 -6 20 -8 20 -6 0 3 -9 10 -20 16
-11 6 -20 8 -20 6z"/>
<path d="M12440 3876 c0 -3 9 -10 20 -16 11 -6 20 -8 20 -6 0 3 -9 10 -20 16
-11 6 -20 8 -20 6z"/>
<path d="M12510 3836 c0 -3 9 -10 20 -16 11 -6 20 -8 20 -6 0 3 -9 10 -20 16
-11 6 -20 8 -20 6z"/>
<path d="M12560 3806 c0 -3 9 -10 20 -16 11 -6 20 -8 20 -6 0 3 -9 10 -20 16
-11 6 -20 8 -20 6z"/>
<path d="M12685 3741 c-3 -5 -2 -12 3 -15 5 -3 9 1 9 9 0 17 -3 19 -12 6z"/>
<path d="M12750 3696 c0 -3 9 -10 20 -16 11 -6 20 -8 20 -6 0 3 -9 10 -20 16
-11 6 -20 8 -20 6z"/>
<path d="M12820 3656 c0 -3 9 -10 20 -16 11 -6 20 -8 20 -6 0 3 -9 10 -20 16
-11 6 -20 8 -20 6z"/>
<path d="M12895 3621 c-3 -6 3 -14 13 -20 14 -7 19 -6 19 4 0 7 -7 11 -15 7
-10 -3 -13 -1 -8 6 4 7 5 12 2 12 -3 0 -7 -4 -11 -9z"/>
<path d="M13050 3526 c0 -3 9 -10 20 -16 11 -6 20 -8 20 -6 0 3 -9 10 -20 16
-11 6 -20 8 -20 6z"/>
<path d="M13120 3483 c0 -1 8 -7 18 -12 13 -7 19 -6 19 2 0 7 -9 13 -19 13
-10 0 -18 -1 -18 -3z"/>
<path d="M13255 3421 c-3 -6 3 -14 13 -20 14 -7 19 -6 19 4 0 7 -7 11 -15 7
-10 -3 -13 -1 -8 6 4 7 5 12 2 12 -3 0 -7 -4 -11 -9z"/>
<path d="M13360 3353 c0 -1 8 -7 18 -12 13 -7 19 -6 19 2 0 7 -9 13 -19 13
-10 0 -18 -1 -18 -3z"/>
<path d="M13515 3281 c-3 -6 5 -15 17 -21 21 -10 21 -10 6 3 -10 8 -15 17 -11
20 3 4 4 7 0 7 -3 0 -8 -4 -12 -9z"/>
<path d="M13720 3163 c0 -1 8 -7 18 -12 13 -7 19 -6 19 2 0 7 -9 13 -19 13
-10 0 -18 -1 -18 -3z"/>
<path d="M13771 3136 c2 -2 15 -9 29 -15 24 -11 24 -11 6 3 -16 13 -49 24 -35
12z"/>
<path d="M13830 3106 c0 -2 7 -7 16 -10 8 -3 12 -2 9 4 -6 10 -25 14 -25 6z"/>
<path d="M13870 3086 c0 -2 7 -7 16 -10 8 -3 12 -2 9 4 -6 10 -25 14 -25 6z"/>
<path d="M14231 2906 c2 -2 15 -9 29 -15 24 -11 24 -11 6 3 -16 13 -49 24 -35
12z"/>
</g>
</svg>
